<?xml version="1.0" standalone="no"?><!DOCTYPE svg PUBLIC "-//W3C//DTD SVG 1.1//EN" "http://www.w3.org/Graphics/SVG/1.1/DTD/svg11.dtd"><svg t="1718693066795" class="icon" viewBox="0 0 1024 1024" version="1.1" xmlns="http://www.w3.org/2000/svg" p-id="1262" xmlns:xlink="http://www.w3.org/1999/xlink" width="200" height="200"><path d="M682.480675 482.107284c-28.318783-11.16752-50.461832-29.54673-56.517572-47.773947-22.087051-66.437145 44.698079-119.222877 79.60458-137.718082 57.95751-30.678682 115.851022-3.587846 131.122365 54.069677" fill="#FFA6A6" p-id="1263"></path><path d="M688.772404 466.139971c-27.150833-10.69954-42.930155-26.398866-46.526001-37.210402-22.171047-66.677135 67.517099-115.131053 71.356934-117.154966 23.143006-12.239474 46.989981-14.135393 67.165114-5.303772 19.299171 8.447637 33.27457 25.714895 39.34231 48.621911l33.162575-8.791622c-8.671627-32.750593-30.090707-58.725477-58.749476-71.268938-29.950713-13.107437-64.401233-10.827535-96.983832 6.419724-44.366094 23.51499-112.779154 83.31642-87.852226 158.305198 7.68767 23.127006 32.546602 44.930069 66.501143 58.317494l12.583459-31.930628z" fill="#6E6E96" p-id="1264"></path><path d="M326.307979 126.654558c-23.866974-41.8862-11.6315-106.071442 127.322529-97.183824 70.100988 4.479808 152.693439 82.424458 110.723242 115.267047" fill="#FFDD5F" p-id="1265"></path><path d="M341.207339 118.154923c-4.263817-7.487678-13.055439-26.718852-2.535891-43.566128 7.91566-12.667456 33.226572-33.150576 113.859107-27.990797 45.078063 2.879876 96.239865 41.170231 104.955491 69.329021 2.851877 9.207604-0.423982 12.727453-3.707841 15.299342l21.151091 27.022839c16.159306-12.639457 21.739066-31.766635 15.343341-52.465745-13.759409-44.44609-79.628578-89.852139-135.554176-93.427986C361.234478 6.375726 324.19207 33.014581 309.568698 56.417576c-14.095394 22.56303-13.407424 51.997766 1.831922 78.732617l29.810719-16.99527z" fill="#6E6E96" p-id="1266"></path><path d="M483.897208 156.893258c21.543074-13.895403 45.482046-24.066966 64.877212-28.934756 115.551035-29.038752 170.912656 61.421361 155.209331 145.605743-11.547504 61.857342-83.108429 113.923105-145.209761 100.211694" fill="#FFDD5F" p-id="1267"></path><path d="M536.370953 224.206366s75.696747 45.938026 83.692404 83.692404c0 0 124.450653-106.12344 0-164.552929 0 0 69.10903 14.139392 69.10903 110.107268s-81.22851 100.747671-81.22851 100.747671-50.917812-64.917211-81.624492-95.627891l10.051568-34.366523z" fill="#FFCA5F" p-id="1268"></path><path d="M493.192808 171.312639c18.631199-12.019484 40.97024-22.003055 59.757432-26.718852 43.166145-10.847534 79.256594-4.107823 104.355516 19.487163 26.046881 24.494947 37.47039 65.237197 29.79872 106.335431-4.903789 26.254872-23.430993 52.261754-49.57787 69.549011-24.218959 16.027311-51.573784 22.251044-75.064774 17.063267l-7.399682 33.50656c32.518603 7.175692 69.465015-0.815965 101.399643-21.947057 33.73455-22.319041 57.801516-56.665565 64.373234-91.872052 9.791579-52.465746-5.547762-105.20348-40.03828-137.630086-33.546559-31.542645-81.92448-41.398221-136.210147-27.766807-22.551031 5.655757-48.065935 17.015269-69.992993 31.158661l18.599201 28.838761zM658.333712 602.470113c-8.779623 5.527762-215.394745 138.054068-247.541363 368.464167a17.159263 17.159263 0 0 0 33.986539 4.743796c29.910715-214.33879 229.838124-342.897266 231.858038-344.169211l-0.012 0.008a17.167262 17.167262 0 0 0-18.291214-29.046752z" fill="#6E6E96" p-id="1269"></path><path d="M410.624356 973.066189a17.159263 17.159263 0 0 1 34.310526 0.239989V510.562062a17.159263 17.159263 0 0 0-34.310526 0v462.748116a17.159263 17.159263 0 0 0 34.310526 0.23999c0.039998-2.399897 0.45598-59.729434-32.942585-133.054283" fill="#6E6E96" p-id="1270"></path><path d="M841.169856 416.198116c25.046924-17.291257 52.637738-25.450906 71.152943-20.319126 67.4811 18.667198 74.112815 103.531551 70.04099 142.821863-6.811707 65.217198-61.557355 98.20778-117.954932 78.772615" fill="#FFA6A6" p-id="1271"></path><path d="M905.599088 394.623044c-18.507205-5.12378-46.106019 3.02387-71.148943 20.319126l23.239001 201.271352c56.397577 19.439165 111.147224-13.551418 117.954932-78.768615 4.079825-39.290312-2.55189-124.154665-70.04499-142.825863z m-14.939359 186.583982l-10.719539-75.060774s25.810891-17.151263 25.730894-64.341236c0 0.004 66.485143 85.784314-15.011355 139.40201z" fill="#E68A8A" opacity=".56" p-id="1272"></path><path d="M850.921437 430.32151c24.014968-16.587287 45.84203-20.9471 56.817559-17.911231 67.72909 18.727195 58.005508 120.206835 57.557526 124.51465-2.719883 26.042881-14.43938 46.905985-33.006581 58.741476-17.763237 11.319514-39.890286 13.303428-62.285324 5.58776l-11.17552 32.446606c32.038623 11.031526 65.533184 7.715668 91.92405-9.099609 27.570815-17.575245 44.862072-47.457961 48.689908-84.124386 5.183777-49.945854-6.371726-140.073981-82.532454-161.133076-23.486991-6.503721-55.437618 1.999914-85.476327 22.739023l19.487163 28.238787z" fill="#6E6E96" p-id="1273"></path><path d="M234.211936 383.843507C158.72718 364.832324 83.406416 289.74755 122.488737 213.630821c23.550988-45.84203 91.328076-133.874248 178.384335-106.13144 23.878974 7.607673 48.229928 36.190445 63.265281 72.948865" fill="#FFDD5F" p-id="1274"></path><path d="M501.452453 261.496764c54.645652 37.870373 94.099957 91.292077 98.611763 123.650687 13.015441 93.263993-113.679115 136.922117-209.011019 125.414611-95.323904-11.519505-169.792704-44.054107-158.501189-137.530091 3.839835-31.862631 56.54557-88.188211 109.159309-121.982758" fill="#FFDD5F" p-id="1275"></path><path d="M598.636277 377.999758c-4.511806-32.362609-43.962111-85.780314-98.611762-123.650687L340.287378 243.88952C287.665639 277.696068 234.971904 334.017648 231.132069 365.872279c-11.291515 93.479983 63.177285 126.018585 158.501189 137.526091 95.327904 11.519505 222.03046-32.138619 209.011019-125.398612z m-198.203483 63.045291c-66.529141-8.039655-113.503123-25.734894-105.623462-90.984091 1.339942-11.039526 13.931401-23.414994 30.770678-35.966454 27.594814 16.575288 97.775799 47.997938 185.512029 7.919659 16.323299 12.827449 28.15079 25.12692 29.79872 36.918414 9.08761 65.093203-73.916824 90.148126-140.457965 82.116472z" fill="#FFCA5F" p-id="1276"></path><path d="M833.754175 482.819254c18.955186 42.266184 28.85076 132.246318 18.323212 153.569401-30.834675 62.561312-90.212124 52.58574-153.993383 21.135092-63.809258-31.446649-124.726641-109.819281-78.908609-162.405022 15.903317-18.251216 62.005336-35.414478 111.255219-36.77042" fill="#FFA6A6" p-id="1277"></path><path d="M833.754175 482.819254l-103.33156-24.474948c-49.237884 1.359942-95.347903 18.519204-111.25522 36.77042-45.818031 52.58974 15.103351 130.962373 78.90461 162.409021 63.785259 31.450649 123.162708 41.42622 153.997383-21.135092 10.535547-21.319084 0.639973-111.303217-18.315213-153.573401z m-127.250533 123.234705c-109.235306-69.189027 10.723539-100.795669 10.72354-100.795669 31.470648 31.470648 87.932222 27.878802 87.932221 27.878802s10.579545 142.113894-98.655761 72.916867z" fill="#E68A8A" opacity=".56" p-id="1278"></path><path d="M818.106847 489.838952c18.891188 42.146189 25.062923 125.850592 18.595201 138.962029-8.667628 17.587244-19.811149 28.482776-34.078536 33.326568-22.479034 7.631672-54.189672 1.099953-96.955834-19.987141-42.010195-20.699111-77.396674-60.117417-84.136384-93.719973-3.287859-16.347298 0.183992-30.094707 10.583545-42.030194 12.087481-13.879404 53.30571-29.638726 98.787755-30.894672l-0.951959-34.302527c-51.381792 1.419939-103.407557 19.359168-123.714684 42.646168-17.371254 19.943143-23.718981 44.606083-18.351212 71.328935 10.279558 51.2098 60.397405 96.943834 102.611591 117.742941 52.057763 25.658897 91.192082 32.558601 123.158708 21.699067 22.995012-7.807665 41.110234-24.846932 53.821688-50.641824 14.211389-28.810762 1.363941-124.838636-18.063224-168.176773l-31.310655 14.047396z" fill="#6E6E96" p-id="1279"></path><path d="M859.733058 456.988364c-20.747109 38.63034-64.609224 39.426306-106.187437 17.079266-41.570214-22.327041-65.145201-59.321451-44.410092-97.943792 20.743109-38.63834 71.268938-51.825773 112.855151-29.490732 41.586213 22.33104 58.477487 71.740917 37.742378 110.355258z" fill="#FFFFFF" p-id="1280"></path><path d="M844.625707 448.868713c-5.839749 10.867533-13.819406 17.699239-24.390951 20.879103-15.903317 4.787794-36.706423 0.959959-58.565484-10.791537-14.119393-7.583674-58.533485-35.37848-37.418392-74.716789 7.343684-13.675412 19.943143-23.782978 35.486475-28.466777 17.511248-5.279773 37.2384-3.099867 54.129674 5.975743 33.178574 17.819234 46.973982 56.905555 30.758678 87.120257z m-14.519376-117.346958c-24.838933-13.343427-54.093676-16.479292-80.256551-8.599631-24.326955 7.323685-44.158103 23.330997-55.837601 45.090063-23.678983 44.118104-3.49985 91.68406 51.409791 121.174793 29.934714 16.087309 60.017421 20.855104 84.704361 13.423423 19.179176-5.775752 34.638512-18.739195 44.718078-37.494388 25.178918-46.901985 5.099781-106.82741-44.734078-133.59426z" fill="#6E6E96" p-id="1281"></path><path d="M197.069532 147.485663s-90.344118 81.828484-4.559804 141.873904c0 0 36.386437-52.997723 118.994887-62.957295l5.903746 20.427122S241.759612 315.826429 217.852639 360.50051c0 0-192.087746-71.796915-20.783107-213.014847z" fill="#FFCA5F" p-id="1282"></path><path d="M238.407756 367.208222c-44.946069-11.319514-85.956307-42.838159-102.059615-78.44463-10.303557-22.779021-9.831578-45.418048 1.39994-67.293108 2.667885-5.183777 66.365148-126.794552 157.913215-97.623806 18.419209 5.871748 39.5583 31.230658 52.58974 63.097289L380.005672 173.952525C362.82641 131.942331 334.499627 100.219694 306.072848 91.156083c-94.94392-30.2587-169.672709 57.821515-198.847455 114.643074-16.027311 31.202659-16.76728 64.785216-2.143908 97.115827 20.507119 45.326052 69.549012 83.624407 124.942631 97.571808l8.37964-33.27857z" fill="#6E6E96" p-id="1283"></path><path d="M491.680873 275.596158c51.813774 35.910457 87.784228 86.056302 91.396073 111.919191 3.183863 22.823019-3.779838 43.134147-20.687111 60.357406-33.606556 34.238529-104.795497 53.437704-169.280726 45.654039-65.541184-7.91966-107.51938-24.66294-128.338486-51.1938-13.587416-17.323256-18.551203-39.318311-15.183347-67.245111 2.691884-22.291042 47.577956-75.028776 101.407642-109.61529l-18.547203-28.86276c-53.661694 34.470519-112.071184 94.155954-116.918976 134.366227-4.459808 36.902414 3.03187 68.037077 22.251044 92.544023 27.086836 34.526516 75.148771 54.889641 151.225502 64.069247 61.67735 7.44768 149.897559-6.799708 197.879497-55.673608 24.410951-24.878931 34.854502-55.693607 30.190703-89.140169-5.555761-39.79429-50.069849-96.727844-105.843452-135.378183l-19.55516 28.198788z" fill="#6E6E96" p-id="1284"></path><path d="M431.223471 125.706599c52.82573 4.535805 92.260036 47.977938 88.052216 97.03583-4.19982 49.061892-49.077891 69.413017-101.91562 64.877212-52.82973-4.515806-93.611978-32.190617-89.412159-81.244509 4.207819-49.077891 50.437833-85.18034 103.275563-80.668533z" fill="#FFFFFF" p-id="1285"></path><path d="M429.759534 142.801864c43.326138 3.71984 75.812742 38.918328 72.428888 78.476628-1.215948 14.19139-6.799708 25.562902-16.587288 33.810547-14.707368 12.387468-38.418349 17.871232-66.765131 15.439337-28.354782-2.419896-50.797817-11.855491-63.177285-26.558859-8.243646-9.787579-11.815492-21.951057-10.599545-36.134447 3.375855-39.5623 41.378222-68.737046 84.700361-65.033206zM310.860643 204.911195c-1.991914 23.251001 4.41981 44.398092 18.543203 61.165372 18.291214 21.715067 49.013894 35.438477 86.500283 38.646339 37.47839 3.211862 70.076989-5.091781 91.796056-23.382995 16.75928-14.119393 26.678854-33.870545 28.670768-57.125545 4.999785-58.40549-41.510216-110.259262-103.683545-115.595033-62.177328-5.319771-116.82698 37.878372-121.826765 96.291862z" fill="#6E6E96" p-id="1286"></path><path d="M360.01853 171.156646s-14.527376 58.165501 46.949983 65.317193c61.477358 7.147693 91.668061-51.749776 66.317151-77.100687 0 0 51.717778 27.186832 24.870931 78.596623-26.850846 51.397792-136.402139 60.953381-153.105421-2.931874-16.719282-63.877255 14.967357-63.877255 14.967356-63.877256zM724.25488 384.24349s-15.58333 52.389749 72.324892 52.389748 35.762463-63.133287 26.53086-69.009034c0 0 91.660061 82.108472-7.103695 109.875278-98.775756 27.758807-141.053939-78.596623-91.756057-93.255992z" fill="#6E6E96" opacity=".15" p-id="1287"></path><path d="M426.523673 688.250427s-140.861947-192.651722-332.217725 41.65821c0 0 194.235654 142.089895 335.573581-39.718294" fill="#AED98E" p-id="1288"></path><path d="M412.684267 698.377992c-145.609743 159.797134-295.5673 25.998883-295.567299 25.998882s226.714258 10.219561 246.021428-22.999011c19.303171-33.222572-74.976778-70.428974-74.976778-70.428974 75.036776-6.639715 124.522649 67.429103 124.522649 67.429103z" fill="#A1C983" p-id="1289"></path><path d="M416.336111 679.658796c-129.242447 166.252856-304.514915 41.758206-311.902598 36.398436l3.159864 24.698939c60.681393-74.308807 121.438782-111.25522 180.568241-109.815282 75.236767 1.843921 124.058669 66.809129 124.542649 67.465101l-0.02-0.031998 27.69881-20.25113c-2.359899-3.223861-58.809473-79.008605-150.985512-81.468499-70.396975-1.883919-140.513962 39.286312-208.383046 122.39474l-11.447508 14.023398 14.607372 10.679541c2.075911 1.519935 209.419002 149.697568 359.248564-43.034151l-27.086836-21.059095z" fill="#6E6E96" p-id="1290"></path><path d="M940.261598 1023.956002c0-81.732488-84.496369-130.826379-188.72789-130.826379-21.463078 0-96.275863-15.011355-96.275864 75.060775 0-98.651761-93.096-136.454137-159.053165-136.454137-78.100644 0-168.904742 38.278355-168.904743 127.874506 6.799708-35.854459-30.906672-66.477144-126.690556-66.477144-71.316936 0-171.568628 49.089891-171.568628 130.818379" fill="#E4B282" p-id="1291"></path><path d="M209.812985 956.146916c85.316334 0 124.51465 24.302956 127.274531 54.957638 7.467679-81.344505 93.663975-116.347001 168.320767-116.347001 64.00925 0 153.565401 35.61047 158.801177 127.874506h0.499978c4.6518-80.508541 75.276765-66.485143 96.027874-66.485143 72.928866 0 136.13815 24.054966 167.5608 66.485143h21.167091c0-81.732488-84.492369-130.822379-188.727891-130.822379-21.463078 0-96.267863-15.011355-96.267863 75.060775 0-98.651761-93.096-136.454137-159.057166-136.454137-74.652792 0-160.853088 35.006496-168.324767 116.347001-2.751882-30.650683-41.958197-54.957639-127.274531-54.957639-71.316936 0-171.568628 49.09389-171.568628 130.826379h23.678982c33.97054-42.426177 97.98779-66.485143 147.885646-66.485143z" fill="#FFC791" opacity=".39" p-id="1292"></path><path d="M957.420861 1023.956002c0-87.132256-84.664362-147.981641-205.887153-147.981642-1.767924 0-4.387811-0.155993-7.427681-0.331985-19.291171-1.131951-55.185629-3.227861-80.564539 20.70311-16.883275 15.923316-25.438907 40.094277-25.438906 71.844913h34.318525c0-112.695158-105.383472-153.6094-176.216428-153.6094-45.338052 0-90.164126 12.043483-122.986716 33.038581-41.262227 26.398866-63.07729 65.129201-63.077289 111.991188l34.018538 3.195862c3.287859-17.359254-0.943959-33.74255-12.239474-47.385963-21.383081-25.814891-66.78913-39.450305-131.314358-39.450305-77.132686 0-188.727891 52.697736-188.72789 147.977641h34.314525c0-69.385019 91.45607-113.663116 154.413365-113.663116 74.456801 0 98.151783 18.895188 104.883494 27.030839 4.759795 5.751753 6.335728 11.815492 4.951787 19.099179l34.014538 3.195863c0-35.074493 15.899317-63.029292 47.25397-83.08843 27.446821-17.563245 65.533184-27.626813 104.49151-27.626813 57.037549 0 141.897903 31.766635 141.897903 119.294874h34.318525c0-21.923058 4.923788-37.70238 14.66337-46.877986 14.607372-13.783408 39.902285-12.299472 55.013636-11.415509 3.575846 0.211991 6.667713 0.391983 9.431595 0.391983 82.640449 0 171.568628 35.570472 171.568628 113.663116h34.322525z" fill="#6E6E96" p-id="1293"></path><path d="M511.976001 784.922273c92.592021 210.84694 315.678436 120.566819 315.678436 120.566819-128.250489-273.988227-311.950596-121.622774-311.950596-121.622774" fill="#AED98E" p-id="1294"></path><path d="M663.881474 762.127252s-100.519681 13.02344-89.924136 49.957854c10.599545 36.926413 232.929991 82.456457 232.929991 82.456457s-178.120346 93.076001-280.227959-97.475812c0 0 66.081161-59.717434 137.222104-34.938499z" fill="#A1C983" p-id="1295"></path><path d="M496.268676 791.821976c98.151783 223.510396 335.429587 130.534391 337.817484 129.570433l16.77528-6.787708-7.675671-16.391296c-45.486046-97.175824-103.399557-154.245372-172.128603-169.632711-89.980134-20.155134-163.248985 39.526302-166.320854 42.078192l21.907059 26.406865-0.023999 0.027999c0.627973-0.515978 63.849256-51.573784 137.254102-34.958498 57.681521 13.059439 107.555378 63.733261 148.237631 150.625528l9.095609-23.175004c-8.467636 3.395854-208.859026 81.244509-293.527388-111.563207l-31.41065 13.799407z" fill="#6E6E96" p-id="1296"></path></svg>